<svg width="18" height="19" viewBox="0 0 18 19" fill="none" xmlns="http://www.w3.org/2000/svg">
<path d="M9.44954 0.5805C13.8042 0.5805 17.356 3.9643 17.356 8.65042C17.356 8.9544 17.3092 9.51756 17.2718 9.82155C17.1923 10.4615 16.8493 10.5591 16.4688 10.5591H5.81362C5.7922 10.559 5.77099 10.5635 5.75132 10.5723C5.73166 10.581 5.71395 10.5938 5.69932 10.6098C5.68469 10.6259 5.67344 10.6449 5.66628 10.6656C5.65912 10.6863 5.65621 10.7084 5.65771 10.7303C5.86508 12.463 6.74131 14.4693 9.65535 14.4693C10.965 14.4693 11.556 13.9349 12.3168 13.3717C12.7846 13.0518 12.9218 13.039 13.4082 13.3717L15.9325 15.082C16.2521 15.3332 16.2599 15.5716 15.8904 15.9364C14.4965 17.2819 12.2295 18.8018 9.48073 18.8018C4.40883 18.8018 0.815002 14.6805 0.815002 9.69195C0.815002 4.78985 4.40104 0.572502 9.43864 0.572502L9.44954 0.5805ZM12.7066 7.65847C12.5678 5.89858 11.0898 4.43466 9.33417 4.43466C8.45531 4.43504 7.60625 4.76163 6.94371 5.35416C6.28117 5.94669 5.84987 6.76515 5.72942 7.65847H12.7066Z" fill="white"/>
</svg>
