<svg width="14" height="25" viewBox="0 0 14 25" fill="none" xmlns="http://www.w3.org/2000/svg">
<path d="M3.18146 24.0546C2.80344 24.0543 2.4316 23.9562 2.10026 23.7695C1.76893 23.5828 1.48879 23.3134 1.28571 22.9862C1.08263 22.659 0.963156 22.2846 0.93833 21.8976C0.913503 21.5105 0.984119 21.1232 1.14366 20.7716L8.73202 1.69913C8.98282 1.14348 9.43845 0.712825 9.99868 0.501897C10.5589 0.290969 11.1779 0.317042 11.7193 0.574392C12.2608 0.831743 12.6805 1.29929 12.8861 1.87417C13.0916 2.44904 13.0662 3.08417 12.8154 3.63981L5.22238 22.7187C5.04152 23.1177 4.75335 23.4554 4.39179 23.6921C4.03023 23.9287 3.61032 24.0545 3.18146 24.0546Z" fill="#FF7964"/>
</svg>
