<svg width="25" height="25" viewBox="0 0 25 25" fill="none" xmlns="http://www.w3.org/2000/svg">
<path d="M12.4303 0.0112316C14.7807 0.00427908 17.0804 0.712704 19.0385 2.04693C20.9965 3.38116 22.525 5.28125 23.4307 7.50691C24.3364 9.73258 24.5785 12.1839 24.1265 14.5507C23.6745 16.9176 22.5486 19.0938 20.8913 20.8041C19.234 22.5144 17.1196 23.6819 14.8156 24.1591C12.5116 24.6363 10.1215 24.4016 7.94743 23.4848C5.77339 22.5681 3.91311 21.0103 2.60185 19.0086C1.29059 17.0069 0.587239 14.6512 0.580753 12.2393C0.57357 10.6372 0.874676 9.04943 1.4668 7.56701C2.05892 6.08459 2.93042 4.73671 4.0313 3.60065C5.13218 2.4646 6.44079 1.56274 7.88208 0.946781C9.32336 0.330825 10.869 0.0128993 12.4303 0.0112316ZM12.4303 19.7684C16.4685 19.7684 19.8004 16.3814 19.8004 12.2377C19.8004 8.09394 16.4685 4.64296 12.4303 4.64296C8.39208 4.64296 5.09292 8.09874 5.09292 12.2377C5.09786 14.2334 5.87265 16.146 7.24789 17.5571C8.62313 18.9683 10.4869 19.7634 12.4318 19.7684" fill="#00CCDB"/>
</svg>
