<svg width="13" height="25" viewBox="0 0 13 25" fill="none" xmlns="http://www.w3.org/2000/svg">
<path d="M2.25457 24.0546C1.87234 24.0549 1.49634 23.9554 1.16192 23.7654C0.827512 23.5755 0.54569 23.3014 0.342973 22.9689C0.140256 22.6364 0.0233094 22.2564 0.00313948 21.8647C-0.0170304 21.4731 0.0602392 21.0826 0.227676 20.73L7.749 1.65115C8.01301 1.10407 8.47745 0.686567 9.04069 0.489985C9.60393 0.293402 10.2201 0.333747 10.7545 0.602185C11.2888 0.870622 11.6977 1.3453 11.8919 1.92237C12.086 2.49944 12.0495 3.13192 11.7903 3.68142L4.27678 22.7603C4.091 23.1492 3.8025 23.4767 3.44414 23.7056C3.08578 23.9344 2.67197 24.0553 2.24989 24.0546" fill="#21A7F9"/>
</svg>
