<svg xmlns="http://www.w3.org/2000/svg" xmlns:xlink="http://www.w3.org/1999/xlink" width="291.242" height="38" viewBox="0 0 291.242 38">
  <defs>
    <clipPath id="clip-path">
      <rect id="Rectangle_161458" data-name="Rectangle 161458" width="291.242" height="38" fill="none"/>
    </clipPath>
  </defs>
  <g id="Group_174035" data-name="Group 174035" clip-path="url(#clip-path)">
    <path id="Path_141172" data-name="Path 141172" d="M281.642,14.77a9.448,9.448,0,0,1,9.634,9.583c0,.36-.056,1.029-.1,1.391a.857.857,0,0,1-.979.876H277.211a.185.185,0,0,0-.186.2c.252,2.058,1.319,4.44,4.87,4.44a4.812,4.812,0,0,0,3.244-1.3c.573-.378.738-.4,1.34,0l3.077,2.03c.388.3.4.582-.051,1.016a11.735,11.735,0,0,1-7.811,3.4,10.505,10.505,0,0,1-10.562-10.819,10.556,10.556,0,0,1,10.51-10.819m3.969,8.406a4.205,4.205,0,0,0-4.111-3.829,4.437,4.437,0,0,0-4.393,3.829Z" transform="translate(-149.491 -8.144)" fill="#194591"/>
    <path id="Path_141173" data-name="Path 141173" d="M412.542,14.77a9.447,9.447,0,0,1,9.634,9.583c0,.36-.056,1.029-.1,1.391a.858.858,0,0,1-.979.876H408.112a.185.185,0,0,0-.186.2c.251,2.058,1.319,4.44,4.869,4.44a4.81,4.81,0,0,0,3.244-1.3c.573-.378.738-.4,1.34,0l3.077,2.03c.388.3.4.582-.051,1.016a11.737,11.737,0,0,1-7.811,3.4,10.5,10.5,0,0,1-10.561-10.819A10.556,10.556,0,0,1,412.542,14.77m3.969,8.406a4.205,4.205,0,0,0-4.111-3.829,4.436,4.436,0,0,0-4.392,3.829Z" transform="translate(-221.664 -8.144)" fill="#194591"/>
    <path id="Path_141174" data-name="Path 141174" d="M322.536,33.421l1.517-2.35a.781.781,0,0,1,1.185-.361,10.7,10.7,0,0,0,4.432,1.083c1.03,0,2.461-.487,2.509-1.536.054-1.192-1.287-1.658-4.018-2.74-3.967-1.545-6.1-3.266-5.884-6.666.2-3.176,2.319-6.079,7.574-6.079a11.812,11.812,0,0,1,6.327,1.6,1.1,1.1,0,0,1,.463,1.391l-1.218,2.311a.988.988,0,0,1-1.236.361,10.965,10.965,0,0,0-4.276-1.082,1.832,1.832,0,0,0-2.028,1.485c.024,1.217,1.131,1.57,3.037,2.344,4.32,1.558,6.967,3.239,6.967,6.946,0,3.4-2.988,6.285-8.191,6.285a11.668,11.668,0,0,1-6.852-1.906.885.885,0,0,1-.309-1.082" transform="translate(-177.683 -8.144)" fill="#194591"/>
    <path id="Path_141175" data-name="Path 141175" d="M614.609,33.421l1.516-2.35a.781.781,0,0,1,1.185-.361,10.707,10.707,0,0,0,4.432,1.083c1.03,0,2.462-.487,2.51-1.536.054-1.192-1.287-1.658-4.018-2.74-3.967-1.545-6.1-3.266-5.884-6.666.2-3.176,2.319-6.079,7.573-6.079a11.811,11.811,0,0,1,6.327,1.6,1.1,1.1,0,0,1,.464,1.391L627.5,20.069a.989.989,0,0,1-1.237.361,10.961,10.961,0,0,0-4.276-1.082,1.832,1.832,0,0,0-2.028,1.485c.024,1.217,1.131,1.57,3.037,2.344,4.32,1.558,6.967,3.239,6.967,6.946,0,3.4-2.988,6.285-8.191,6.285a11.669,11.669,0,0,1-6.852-1.906.885.885,0,0,1-.309-1.082" transform="translate(-338.719 -8.144)" fill="#194591"/>
    <path id="Path_141176" data-name="Path 141176" d="M365.444,14.351,363,14.327a.927.927,0,0,1-.928-.927V10.125A.936.936,0,0,1,363,9.146l2.26.024a.185.185,0,0,0,.184-.184V4.829a.982.982,0,0,1,.979-.978H370a.968.968,0,0,1,.927.978l0,4.132a.184.184,0,0,0,.184.184h4.673a.979.979,0,0,1,.979.978v3.248a.978.978,0,0,1-.979.978h-4.857v8.567c0,1.443.869,2.293,1.693,2.293a12.274,12.274,0,0,0,3.07-.727.778.778,0,0,1,1.134.566l.629,2.936a.977.977,0,0,1-.568,1.237,17.662,17.662,0,0,1-6.046,1.166c-3.089-.112-5.395-2.473-5.395-6.645Z" transform="translate(-199.631 -2.123)" fill="#194591"/>
    <path id="Path_141177" data-name="Path 141177" d="M455.793,16.145a.978.978,0,0,1,.979-.978h2.343a.942.942,0,0,1,.927.669L460.429,18a6.428,6.428,0,0,1,5.447-3.229c2.421,0,4.22.664,3.6,1.952L468.31,19.4a1.231,1.231,0,0,1-1.394.84,6.793,6.793,0,0,0-1.508-.174,5.322,5.322,0,0,0-4.088,2.3.344.344,0,0,0-.044.175V35.23a.918.918,0,0,1-.918.917h-3.646a.921.921,0,0,1-.919-.917Z" transform="translate(-251.305 -8.144)" fill="#194591"/>
    <path id="Path_141178" data-name="Path 141178" d="M505.123,0a14.456,14.456,0,0,1,0,28.913A14.328,14.328,0,0,1,490.707,14.5,14.4,14.4,0,0,1,505.123,0m0,23.422A8.966,8.966,0,1,0,496.2,14.5a8.984,8.984,0,0,0,8.926,8.927" transform="translate(-270.555 0)" fill="#194591"/>
    <path id="Path_141179" data-name="Path 141179" d="M573.38,14.769A6.592,6.592,0,0,0,567.161,18l-.4-2.164a.946.946,0,0,0-.917-.669H563.5a.978.978,0,0,0-.979.978v26.98a2.893,2.893,0,0,0,2.634,3.011,2.85,2.85,0,0,0,3.052-2.593V41.152c0-.012,0-.023,0-.035V34.459a9.359,9.359,0,0,0,4.909,1.948c5.565,0,9.877-4.74,9.877-10.819,0-5.925-3.953-10.734-9.619-10.819m-2.24,16.293a6.6,6.6,0,0,1-3.112-1.177V23.359a4.675,4.675,0,0,1,4.46-3.319c3.035,0,5.118,2.575,5.057,5.679a5.615,5.615,0,0,1-6.406,5.343" transform="translate(-310.152 -8.142)" fill="#194591"/>
    <path id="Path_141180" data-name="Path 141180" d="M211.2,28.283a2.739,2.739,0,0,1-2.555-1.764h0l-5.482-12.806-5.268,13.036a2.736,2.736,0,0,1-5.013-.225h0l-9.4-25.337A.758.758,0,0,1,183.6.4a.628.628,0,0,1,.5-.2h3.416a1.837,1.837,0,0,1,1.843,1.281l5.954,17.082,6.807-16.843a2.736,2.736,0,1,1,4.915,2.406L205.985,6.72l.013.006,4.9,12.322L217.95,1.775a2.736,2.736,0,1,1,4.962,2.307L213.681,26.7a2.736,2.736,0,0,1-2.483,1.583" transform="translate(-101.129 -0.106)" fill="#194591"/>
    <path id="Path_141181" data-name="Path 141181" d="M2.74,29.085A2.742,2.742,0,0,1,.28,25.139L9.436,2.481A2.741,2.741,0,1,1,14.36,4.891L5.2,27.549A2.742,2.742,0,0,1,2.74,29.085" transform="translate(0 -0.521)" fill="#21a7f9"/>
    <path id="Path_141182" data-name="Path 141182" d="M37.85,29.086a2.742,2.742,0,0,1-2.483-3.9L44.614,2.531a2.741,2.741,0,1,1,4.97,2.311L40.338,27.5a2.74,2.74,0,0,1-2.487,1.586" transform="translate(-19.359 -0.521)" fill="#ff7964"/>
    <path id="Path_141183" data-name="Path 141183" d="M92.054.026a14.483,14.483,0,1,1,0,28.965A14.354,14.354,0,0,1,77.612,14.549,14.422,14.422,0,0,1,92.054.026m0,23.464a8.982,8.982,0,1,0-8.943-8.943,9,9,0,0,0,8.943,8.943" transform="translate(-42.792 -0.014)" fill="#00ccdb"/>
  </g>
</svg>
