<svg width="25" height="25" viewBox="0 0 25 25" fill="none" xmlns="http://www.w3.org/2000/svg">
<path d="M12.4938 5.07725e-05C14.8402 -0.0069017 17.136 0.700313 19.0907 2.03225C21.0455 3.36419 22.5714 5.26103 23.4755 7.48289C24.3797 9.70476 24.6214 12.1518 24.1702 14.5147C23.7189 16.8775 22.595 19.05 20.9405 20.7574C19.286 22.4648 17.1753 23.6303 14.8752 24.1067C12.5751 24.5831 10.1891 24.3488 8.01873 23.4336C5.84839 22.5184 3.99126 20.9634 2.68223 18.9651C1.37319 16.9668 0.671037 14.6151 0.664551 12.2073C0.664551 5.44452 5.90328 5.07725e-05 12.4938 5.07725e-05ZM12.4938 19.7237C16.5242 19.7237 19.8514 16.3415 19.8514 12.2041C19.8514 8.06676 16.5242 4.62218 12.4938 4.62218C8.4634 4.62218 5.16581 8.06836 5.16581 12.2041C5.17033 14.197 5.94385 16.1069 7.31713 17.5161C8.69041 18.9253 10.5517 19.719 12.4938 19.7237Z" fill="white"/>
</svg>
