<svg width="17" height="27" viewBox="0 0 17 27" fill="none" xmlns="http://www.w3.org/2000/svg">
<path d="M9.01195 0.580503C5.98564 0.534106 4.81473 1.99002 3.90886 3.30034L3.58143 1.47805C3.53182 1.31374 3.43192 1.17023 3.29655 1.06878C3.16118 0.967339 2.99755 0.913364 2.82993 0.914877H0.907507C0.802003 0.914666 0.697492 0.935836 0.599979 0.977168C0.502467 1.0185 0.413855 1.07919 0.339252 1.15574C0.26465 1.23229 0.205518 1.32321 0.165238 1.42327C0.124958 1.52334 0.104338 1.63057 0.104543 1.73883V24.4575C0.0967473 25.7854 0.987018 26.8957 2.26552 26.9933C2.87865 27.0403 3.48517 26.8377 3.9538 26.4293C4.42243 26.0209 4.71546 25.4395 4.7695 24.8111V22.7968C4.77026 22.7872 4.77026 22.7776 4.7695 22.768V17.1603C5.60832 17.7427 7.14877 18.8018 8.79678 18.8018C13.3635 18.8018 16.9043 14.8101 16.9043 9.69196C16.9059 4.69866 13.6613 0.652499 9.01195 0.580503ZM7.17371 14.2981C5.52725 14.0709 4.61982 13.3077 4.61982 13.3077V7.81366C4.888 6.85372 6.00434 5.01863 8.2807 5.01863C10.7753 5.01863 12.4795 7.18811 12.4311 9.80075C12.3781 12.5942 9.87103 14.6725 7.17371 14.2981Z" fill="white"/>
</svg>
