<svg width="13" height="19" viewBox="0 0 13 19" fill="none" xmlns="http://www.w3.org/2000/svg">
<path d="M0.809389 1.73885C0.809182 1.63045 0.829859 1.52309 0.870236 1.42292C0.910613 1.32275 0.969901 1.23177 1.04467 1.15519C1.11944 1.07862 1.20822 1.01797 1.30591 0.976727C1.4036 0.935489 1.50828 0.914473 1.61391 0.914895H3.53633C3.70554 0.911292 3.87131 0.964294 4.00857 1.06589C4.14583 1.16749 4.24714 1.31217 4.2972 1.47806L4.60903 3.30036C5.19994 2.43161 6.45662 0.580521 9.07755 0.580521C11.0655 0.580521 12.5404 1.14048 12.0399 2.22522L11.0795 4.47949C10.8877 4.90506 10.4886 5.34343 9.93664 5.18664C9.53048 5.09139 9.11529 5.04256 8.69866 5.04105C7.0678 5.04105 5.7051 6.34017 5.34338 6.97693C5.31917 7.02197 5.30681 7.07269 5.30752 7.12412V17.8083C5.30752 18.0132 5.22818 18.2098 5.08695 18.3547C4.94573 18.4996 4.75419 18.581 4.55446 18.581H1.56869C1.36895 18.5806 1.17747 18.4991 1.03609 18.3543C0.894699 18.2096 0.814894 18.0133 0.814071 17.8083L0.809389 1.73885Z" fill="white"/>
</svg>
