<svg width="14" height="19" viewBox="0 0 14 19" fill="none" xmlns="http://www.w3.org/2000/svg">
<path d="M0.874036 16.2852L2.12135 14.3061C2.2913 13.8725 2.71383 13.7861 3.09426 14.0021C3.09426 14.0021 4.78593 14.9141 6.73175 14.9141C7.57681 14.9141 8.75084 14.5045 8.78981 13.6213C8.83503 12.6166 7.73428 12.2246 5.49379 11.3143C2.23829 10.0119 0.492046 8.56404 0.660434 5.70021C0.816348 3.02517 2.56259 0.580521 6.87519 0.580521C9.36982 0.580521 11.18 1.31647 12.0671 1.92443C12.4476 2.18522 12.6596 2.66199 12.4476 3.09556L11.4482 5.04265C11.2361 5.43303 10.7715 5.47622 10.4332 5.34663C10.4332 5.34663 8.75864 4.46348 6.92508 4.43468C5.91008 4.41868 5.249 5.12264 5.25991 5.68581C5.28018 6.71135 6.1954 7.00893 7.75455 7.6601C11.3 8.97042 13.4719 10.3799 13.4719 13.5077C13.4719 16.3716 11.021 18.8018 6.75046 18.8018C3.95959 18.8018 2.01533 17.8899 1.12662 17.2019C0.874035 16.9843 0.704089 16.6372 0.874036 16.29" fill="white"/>
</svg>
