<svg width="13" height="23" viewBox="0 0 13 23" fill="none" xmlns="http://www.w3.org/2000/svg">
<path d="M3.07295 9.29701L1.06633 9.27621C0.864537 9.27621 0.671008 9.19396 0.528318 9.04754C0.385629 8.90112 0.305466 8.70253 0.305466 8.49546V5.73883C0.300634 5.63294 0.316696 5.52715 0.352686 5.42778C0.388675 5.32842 0.443846 5.23754 0.5149 5.16059C0.585955 5.08365 0.671422 5.02222 0.766177 4.98C0.860933 4.93778 0.963029 4.91562 1.06633 4.91488L2.92171 4.93407C2.96306 4.93407 3.00271 4.91722 3.03195 4.88722C3.06119 4.85722 3.07762 4.81651 3.07762 4.77408V1.2799C3.07804 1.06123 3.16298 0.851654 3.31382 0.69718C3.46465 0.542705 3.66905 0.455944 3.88215 0.455944H6.81957C7.02582 0.46507 7.22052 0.556149 7.36252 0.709913C7.50451 0.863678 7.58265 1.06808 7.58044 1.2799V4.75969C7.58044 4.80212 7.59686 4.84281 7.6261 4.87282C7.65534 4.90282 7.695 4.91968 7.73635 4.91968H11.5578C11.6634 4.91947 11.768 4.94063 11.8656 4.98194C11.9632 5.02325 12.0519 5.08391 12.1266 5.16045C12.2013 5.23698 12.2606 5.32788 12.3011 5.42795C12.3415 5.52802 12.3623 5.6353 12.3623 5.74363V8.47786C12.3623 8.5862 12.3415 8.69348 12.3011 8.79355C12.2606 8.89362 12.2013 8.98452 12.1266 9.06105C12.0519 9.13758 11.9632 9.19824 11.8656 9.23956C11.768 9.28087 11.6634 9.30203 11.5578 9.30182H7.57263V16.5158C7.57263 17.7301 8.28517 18.4469 8.96184 18.4469C9.68061 18.4469 11.0152 18.0069 11.4814 17.8341C11.9476 17.6613 12.3405 17.8677 12.4169 18.3141L12.9314 20.7859C13.0343 21.2659 12.8893 21.6531 12.4637 21.8275C12.2517 21.9571 9.57147 22.8866 7.50092 22.8098C4.96731 22.7154 3.07451 20.7299 3.07451 17.2101L3.07295 9.29701Z" fill="white"/>
</svg>
