<svg width="21" height="21" viewBox="0 0 21 21" fill="none" xmlns="http://www.w3.org/2000/svg">
<path fill-rule="evenodd" clip-rule="evenodd" d="M6.88604 0.55335C7.77954 -0.340147 9.2965 -0.0211726 9.75448 1.15651L10.3882 2.78603C10.7137 3.6231 11.2335 4.3708 11.9048 4.96749C12.5404 5.53249 13.2951 5.94717 14.1128 6.1808L18.0719 7.31199C19.3549 7.67856 19.7721 9.28856 18.8286 10.2321L15.0607 14L20.6553 19.5947C20.9482 19.8876 20.9482 20.3625 20.6553 20.6553C20.3624 20.9482 19.8876 20.9482 19.5947 20.6553L14 15.0607L10.2321 18.8286C9.28857 19.7721 7.67856 19.3549 7.31199 18.0719L6.18081 14.1128C5.94717 13.2951 5.53249 12.5404 4.96749 11.9048C4.3708 11.2335 3.6231 10.7137 2.78603 10.3882L1.15651 9.75448C-0.0211735 9.2965 -0.340147 7.77954 0.55335 6.88604L6.88604 0.55335ZM13.4748 13.4646C13.4731 13.4663 13.4714 13.468 13.4697 13.4697C13.468 13.4714 13.4663 13.4731 13.4646 13.4748L9.17143 17.768C9.03664 17.9027 8.80664 17.8431 8.75428 17.6599L7.62309 13.7007C7.32762 12.6665 6.80316 11.7121 6.0886 10.9083C5.33397 10.0593 4.38834 9.40187 3.3297 8.99018L1.70017 8.35648C1.53194 8.29105 1.48637 8.07434 1.61401 7.9467L7.9467 1.61401C8.07434 1.48637 8.29105 1.53194 8.35648 1.70017L8.99018 3.3297C9.40188 4.38834 10.0593 5.33397 10.9083 6.0886C11.7122 6.80316 12.6665 7.32761 13.7007 7.62309L17.6599 8.75427C17.8431 8.80664 17.9027 9.03664 17.768 9.17143L13.4748 13.4646Z" fill="#010A1B"/>
</svg>
