<svg width="34" height="24" viewBox="0 0 34 24" fill="none" xmlns="http://www.w3.org/2000/svg">
<path d="M23.3292 23.7266C22.8742 23.7266 22.4299 23.5845 22.0554 23.3193C21.6808 23.0542 21.3937 22.6784 21.2321 22.2419L16.7324 11.4586L12.4089 22.4355C12.2165 22.8384 11.9137 23.1749 11.5376 23.4036C11.1614 23.6324 10.7284 23.7435 10.2916 23.7233C9.85484 23.7031 9.43331 23.5524 9.07879 23.2898C8.72426 23.0272 8.45217 22.6641 8.29591 22.2451L0.58281 0.910401C0.538561 0.801879 0.524323 0.682938 0.541652 0.566652C0.558981 0.450366 0.607206 0.341235 0.681037 0.251241C0.733563 0.195516 0.79737 0.152302 0.867955 0.124657C0.93854 0.0970116 1.01418 0.0856099 1.08953 0.0912505H3.896C4.83148 0.0912505 5.19944 0.657616 5.40837 1.17119L10.2947 15.5543L15.8812 1.37117C16.1429 0.822315 16.6064 0.402633 17.1697 0.204457C17.733 0.00628011 18.35 0.0458354 18.8848 0.31443C19.4197 0.583026 19.8287 1.05866 20.0218 1.63669C20.215 2.21471 20.1764 2.84779 19.9147 3.39665L19.0556 5.57732H19.0665L23.0906 15.9527L28.8751 1.40957C29.1334 0.867874 29.5885 0.45172 30.1425 0.250469C30.6965 0.0492188 31.3054 0.0789221 31.8383 0.333189C32.3712 0.587456 32.7858 1.04602 32.9929 1.61042C33.2 2.17481 33.1831 2.80004 32.946 3.35186L25.3717 22.3907C25.1913 22.7905 24.9031 23.1288 24.5411 23.3655C24.1791 23.6023 23.7585 23.7276 23.3292 23.7266Z" fill="white"/>
</svg>
